<?xml version="1.0" encoding="utf-8"?>
<!-- Generator: Adobe Illustrator 23.0.6, SVG Export Plug-In . SVG Version: 6.00 Build 0)  -->
<svg version="1.1" id="Camada_1" xmlns="http://www.w3.org/2000/svg" xmlns:xlink="http://www.w3.org/1999/xlink" x="0px" y="0px"
	 viewBox="0 0 31.1 28.5" style="enable-background:new 0 0 31.1 28.5;" xml:space="preserve">
<style type="text/css">
	.st0{fill:#F2C26A;}
	.st1{fill:#253257;stroke:#263257;stroke-width:0.25;stroke-miterlimit:10;}
	.st2{fill:#253257;}
	.st3{fill:#253257;stroke:#263257;stroke-width:0.5;stroke-miterlimit:10;}
</style>
<rect y="-0.3" class="st0" width="31.3" height="28.7"/>
<g id="menu" transform="translate(9.51 0.001) rotate(19)">
	<path id="Caminho_5" class="st1" d="M7.1,16.1c0,0.1-0.1,0.1-0.1,0.1c-0.1,0-0.1,0-0.1-0.1l-0.4-0.7l0,1.4c0,0.1-0.1,0.1-0.2,0.1
		S6,16.9,6,16.8l0-2c0-0.1,0.1-0.2,0.2-0.2c0,0,0,0,0,0c0.1,0,0.2,0,0.3,0.2L7,15.6l0.4-0.7c0.1-0.2,0.2-0.2,0.3-0.2
		c0.1,0,0.2,0.1,0.2,0.2c0,0,0,0,0,0l0,2c0,0.1-0.1,0.1-0.2,0.1s-0.2,0-0.2-0.1l0-1.4L7.1,16.1z"/>
	<path id="Caminho_6" class="st1" d="M9,15.6h0.5c0.1,0,0.1,0.1,0.1,0.2c0,0.1,0,0.2-0.1,0.2c0,0,0,0,0,0H9v0.6h0.9
		c0.1,0,0.1,0.1,0.1,0.2c0,0.1,0,0.2-0.1,0.2H8.8c-0.1,0-0.2,0-0.2-0.1l0-2.1c0-0.1,0.1-0.1,0.2-0.1l1.1,0c0.1,0,0.1,0.1,0.1,0.2
		c0,0.1,0,0.2-0.1,0.2L9,15V15.6z"/>
	<path id="Caminho_7" class="st1" d="M11.8,16.8l-0.7-1.3l0,1.3c0,0.1-0.1,0.1-0.2,0.1s-0.2,0-0.2-0.1l0-2.1c0-0.1,0.1-0.1,0.2-0.1
		c0.1,0,0.2,0,0.3,0.2l0.6,1.2v-1.3c0-0.1,0.1-0.1,0.2-0.1s0.2,0,0.2,0.1v2.1c0,0.1-0.1,0.1-0.2,0.1C11.9,17,11.8,16.9,11.8,16.8
		L11.8,16.8z"/>
	<path id="Caminho_8" class="st1" d="M14.1,14.8c0-0.1,0.1-0.1,0.2-0.1c0.1,0,0.2,0,0.2,0.1v1.5c0,0.4-0.4,0.8-0.8,0.7
		c-0.4,0-0.7-0.3-0.7-0.7l0-1.5c0-0.1,0.1-0.1,0.2-0.1s0.2,0,0.2,0.1l0,1.5c0,0.2,0.1,0.4,0.3,0.4c0.2,0,0.4-0.1,0.4-0.3
		c0,0,0,0,0,0L14.1,14.8L14.1,14.8z"/>
	<path id="Caminho_9" class="st1" d="M14.9,17.6l-1.5,0c-0.1,0-0.3,0.1-0.3,0.3c0,0.1,0.1,0.3,0.3,0.3c0,0,0,0,0,0l1.5,0
		c0.1,0,0.3-0.1,0.3-0.3C15.2,17.7,15,17.6,14.9,17.6C14.9,17.6,14.9,17.6,14.9,17.6z"/>
	<path id="Caminho_10" class="st1" d="M12.1,17.6l-6.1,0c-0.1,0-0.3,0.1-0.3,0.3c0,0.1,0.1,0.3,0.3,0.3c0,0,0,0,0,0l6.1,0
		c0.1,0,0.3-0.1,0.3-0.3C12.4,17.7,12.3,17.6,12.1,17.6C12.1,17.6,12.1,17.6,12.1,17.6z"/>
	<path id="Caminho_11" class="st1" d="M14.9,13.5l-8.9,0c-0.1,0-0.3,0.1-0.3,0.3C5.7,13.9,5.8,14,6,14c0,0,0,0,0,0l8.9,0
		c0.1,0,0.3-0.1,0.3-0.3C15.2,13.6,15,13.5,14.9,13.5C14.9,13.5,14.9,13.5,14.9,13.5z"/>
	<path id="Caminho_12" class="st2" d="M14.7,10.1h-0.3c-0.1-1.8-1.4-3.4-3.2-3.7l0.1-0.5c0-0.3-0.2-0.6-0.5-0.6c0,0,0,0-0.1,0h-0.6
		c-0.3,0-0.6,0.3-0.6,0.6c0,0,0,0,0,0.1l0.1,0.5c-1.8,0.4-3.1,1.9-3.2,3.7H6.1c-0.2,0-0.4,0.2-0.4,0.4l0,0.6c0,0.2,0.2,0.4,0.4,0.4
		l8.6,0c0.2,0,0.4-0.2,0.4-0.4l0-0.6C15.2,10.3,15,10.1,14.7,10.1L14.7,10.1z M10.1,5.8C10.1,5.8,10.1,5.8,10.1,5.8l0.6,0
		c0,0,0,0,0,0c0,0,0,0,0,0l-0.1,0.5c-0.1,0-0.2,0-0.3,0s-0.2,0-0.3,0L10.1,5.8C10.1,5.8,10.1,5.8,10.1,5.8L10.1,5.8z M14.6,11
		l-8.4,0v-0.3l1.1,0c0.1,0,0.3-0.1,0.3-0.3c0-0.1-0.1-0.3-0.3-0.3c0,0,0,0,0,0l-0.5,0c0.1-1.9,1.8-3.4,3.7-3.3
		c1.8,0.1,3.2,1.5,3.3,3.3l-5.3,0c-0.1,0-0.3,0.1-0.3,0.3c0,0.1,0.1,0.3,0.3,0.3l6,0L14.6,11z"/>
	<path id="Caminho_13" class="st3" d="M16.8,2.6l-12.8,0c-0.4,0-0.7,0.3-0.7,0.7l0,0l0,0.5H3.1c-0.5,0-0.8,0.4-0.8,0.8
		c0,0.5,0.4,0.8,0.8,0.8h0.2l0,1.2H3.1C2.7,6.6,2.3,7,2.3,7.4c0,0.5,0.4,0.8,0.8,0.8l0.2,0l0,1.2H3.1c-0.5,0-0.8,0.4-0.8,0.8
		c0,0.5,0.4,0.8,0.8,0.8h0.2l0,1.2H3.1c-0.5,0-0.8,0.4-0.8,0.8c0,0.5,0.4,0.8,0.8,0.8l0.2,0l0,1.2H3.1c-0.5,0-0.8,0.4-0.8,0.8
		c0,0.5,0.4,0.8,0.8,0.8h0.2l0,1.2H3.1c-0.5,0-0.8,0.4-0.8,0.8c0,0.5,0.4,0.8,0.8,0.8h0.2l0,0.5c0,0.4,0.3,0.7,0.7,0.7c0,0,0,0,0,0
		l12.8,0c0.4,0,0.7-0.3,0.7-0.7l0,0l0-16.8C17.5,2.9,17.2,2.6,16.8,2.6C16.8,2.6,16.8,2.6,16.8,2.6z M3.4,4.9H3.1
		C3,4.9,2.8,4.8,2.8,4.6S3,4.3,3.1,4.3h0.2V4.9z M3.4,7.7H3.1C3,7.7,2.8,7.6,2.8,7.4c0-0.2,0.1-0.3,0.3-0.3h0.2L3.4,7.7z M3.4,10.6
		H3.1c-0.2,0-0.3-0.1-0.3-0.3C2.8,10.1,3,10,3.1,10l0.2,0L3.4,10.6z M3.4,13.4H3.1c-0.2,0-0.3-0.1-0.3-0.3s0.1-0.3,0.3-0.3h0.2
		L3.4,13.4z M3.4,16.2H3.1c-0.2,0-0.3-0.1-0.3-0.3c0-0.2,0.1-0.3,0.3-0.3h0.2L3.4,16.2z M3.4,19.1H3.1c-0.2,0-0.3-0.1-0.3-0.3
		c0-0.2,0.1-0.3,0.3-0.3h0.2V19.1z M17,20.1c0,0.1-0.1,0.1-0.1,0.1l-12.8,0c-0.1,0-0.1-0.1-0.1-0.1l0-16.8c0-0.1,0.1-0.1,0.1-0.1
		l12.8,0c0.1,0,0.1,0.1,0.1,0.1L17,20.1z"/>
</g>
</svg>
