<?xml version="1.0" encoding="utf-8"?>
<!-- Generator: Adobe Illustrator 23.0.6, SVG Export Plug-In . SVG Version: 6.00 Build 0)  -->
<svg version="1.1" id="Camada_1" xmlns="http://www.w3.org/2000/svg" xmlns:xlink="http://www.w3.org/1999/xlink" x="0px" y="0px"
	 viewBox="0 0 30.1 28.3" style="enable-background:new 0 0 30.1 28.3;" xml:space="preserve">
<style type="text/css">
	.st0{fill:#F2C26A;}
	.st1{fill:#253257;stroke:#263257;stroke-width:0.5;stroke-miterlimit:10;}
</style>
<rect x="-0.6" y="-0.2" class="st0" width="31.3" height="28.7"/>
<g id="graph" transform="translate(0)">
	<path id="Caminho_14" class="st1" d="M9.1,14.2H7.2c-0.1,0-0.2,0.1-0.2,0.2c0,0,0,0,0,0v7c0,0.1,0.1,0.2,0.2,0.2h1.9
		c0.1,0,0.2-0.1,0.2-0.2v-2.2c0-0.1-0.1-0.2-0.3-0.2c-0.1,0-0.2,0.1-0.2,0.2v2H7.4v-6.5h1.5v3.7c0,0.1,0.1,0.2,0.2,0.3
		c0.1,0,0.2-0.1,0.3-0.2c0,0,0,0,0,0v-4C9.4,14.3,9.3,14.2,9.1,14.2C9.1,14.2,9.1,14.2,9.1,14.2L9.1,14.2z"/>
	<path id="Caminho_15" class="st1" d="M12.6,16.4h-1.9c-0.1,0-0.2,0.1-0.2,0.2v4.7c0,0.1,0.1,0.2,0.2,0.2h1.9c0.1,0,0.2-0.1,0.2-0.2
		v-4.7C12.8,16.5,12.7,16.4,12.6,16.4C12.6,16.4,12.6,16.4,12.6,16.4z M12.3,21.1h-1.5v-4.2h1.5V21.1z"/>
	<path id="Caminho_16" class="st1" d="M16,12.7h-1.9c-0.1,0-0.2,0.1-0.2,0.2v0v8.5c0,0.1,0.1,0.2,0.2,0.2h0H16
		c0.1,0,0.2-0.1,0.2-0.2v0v-8.5C16.2,12.8,16.1,12.7,16,12.7C16,12.7,16,12.7,16,12.7z M15.8,21.1h-1.5v-8h1.5V21.1z"/>
	<path id="Caminho_17" class="st1" d="M19.4,13.8h-1.9c-0.1,0-0.2,0.1-0.2,0.2v7.3c0,0.1,0.1,0.2,0.2,0.2h1.9c0.1,0,0.2-0.1,0.2-0.2
		V14C19.7,13.9,19.6,13.8,19.4,13.8C19.4,13.8,19.4,13.8,19.4,13.8z M19.2,21.1h-1.5v-6.9h1.5L19.2,21.1z"/>
	<path id="Caminho_18" class="st1" d="M22.9,10.4H21c-0.1,0-0.2,0.1-0.2,0.2v3.2c0,0.1,0.1,0.2,0.2,0.3c0.1,0,0.2-0.1,0.3-0.2
		c0,0,0,0,0,0v-2.9h1.5v10.2h-1.5v-6.5c0-0.1-0.1-0.2-0.2-0.3c-0.1,0-0.2,0.1-0.3,0.2c0,0,0,0,0,0v6.7c0,0.1,0.1,0.2,0.2,0.2h1.9
		c0.1,0,0.2-0.1,0.2-0.2V10.7C23.1,10.6,23,10.4,22.9,10.4z"/>
	<path id="Caminho_19" class="st1" d="M21.2,8.6c0.6,0.4,1.3,0.2,1.7-0.3s0.2-1.3-0.3-1.7c-0.6-0.4-1.3-0.2-1.7,0.3
		c-0.3,0.4-0.3,0.9,0,1.3l-1.7,1.7c-0.6-0.4-1.3-0.2-1.7,0.3c0,0,0,0.1-0.1,0.1L16.2,10c0.1-0.7-0.4-1.3-1.1-1.3
		c-0.7-0.1-1.3,0.4-1.3,1.1c0,0.3,0,0.6,0.2,0.8l-1.8,2c-0.5-0.3-1.1-0.2-1.5,0.2l-1.5-0.9c0.2-0.6-0.1-1.3-0.7-1.6S7.3,10.2,7,10.9
		s0.1,1.3,0.7,1.6c0.5,0.2,1,0.1,1.3-0.3l1.5,0.9c-0.2,0.6,0.1,1.3,0.7,1.6s1.3-0.1,1.6-0.7c0.2-0.4,0.1-0.8-0.1-1.2l1.8-2
		c0.6,0.3,1.3,0.2,1.7-0.4c0,0,0,0,0,0l1.2,0.4c-0.1,0.7,0.4,1.3,1.1,1.3c0.7,0.1,1.3-0.4,1.3-1.1c0-0.3,0-0.6-0.2-0.8L21.2,8.6z
		 M8.2,12c-0.4,0-0.7-0.3-0.7-0.7c0-0.4,0.3-0.7,0.7-0.7c0.4,0,0.7,0.3,0.7,0.7c0,0,0,0,0,0C8.9,11.7,8.6,12,8.2,12z M11.6,14.3
		c-0.4,0-0.7-0.3-0.7-0.7c0-0.4,0.3-0.7,0.7-0.7s0.7,0.3,0.7,0.7c0,0,0,0,0,0C12.3,13.9,12,14.3,11.6,14.3L11.6,14.3z M15,10.5
		c-0.4,0-0.7-0.3-0.7-0.7s0.3-0.7,0.7-0.7c0.4,0,0.7,0.3,0.7,0.7c0,0,0,0,0,0C15.8,10.2,15.4,10.5,15,10.5C15,10.5,15,10.5,15,10.5
		L15,10.5z M21.9,6.9c0.4,0,0.7,0.3,0.7,0.7c0,0.4-0.3,0.7-0.7,0.7c-0.4,0-0.7-0.3-0.7-0.7v0C21.2,7.2,21.5,6.9,21.9,6.9z
		 M18.5,11.7c-0.4,0-0.7-0.3-0.7-0.7s0.3-0.7,0.7-0.7c0.4,0,0.7,0.3,0.7,0.7C19.2,11.3,18.9,11.7,18.5,11.7L18.5,11.7z"/>
</g>
</svg>
