<svg id="Camada_1" data-name="Camada 1" xmlns="http://www.w3.org/2000/svg" viewBox="0 0 1608.63 321"><defs><style>.cls-1,.cls-2,.cls-3{fill:#d8d8d9;}.cls-1,.cls-3{stroke:#d8d8d9;}.cls-1{stroke-width:4px;}.cls-3{stroke-width:3px;}</style></defs><title>imgComplemento</title><g id="Grupo_122" data-name="Grupo 122"><path id="Caminho_4758" data-name="Caminho 4758" class="cls-1" d="M590.41,191.36a41,41,0,1,0,44.4,37.25A41,41,0,0,0,590.41,191.36Zm6.52,74.5a33.81,33.81,0,1,1,30.73-36.62,33.8,33.8,0,0,1-30.73,36.62Z"/><path id="Caminho_4759" data-name="Caminho 4759" class="cls-1" d="M671.41,132.17l-.27,0L675.84,92a10.6,10.6,0,0,0-2.36-8.06,9.32,9.32,0,0,0-6.78-3.32L652.78,80a9.52,9.52,0,0,0-3,.36l0-1a10.78,10.78,0,0,0-3.07-7.94,9.5,9.5,0,0,0-7.09-2.83l-10.24.31A11.14,11.14,0,0,0,626.49,61a9.76,9.76,0,0,0-7-3.19l-14.33-.36A10,10,0,0,0,598,60.3a11.3,11.3,0,0,0-3.36,8l-.12,13.51a10.14,10.14,0,0,0-1.29-1.33A9.77,9.77,0,0,0,586,78.1l-14.1,1.24a9.57,9.57,0,0,0-5.09,2l-1.94-10.43a11.31,11.31,0,0,0-4.71-7.29,9.9,9.9,0,0,0-7.53-1.56L538.55,64.9a9.73,9.73,0,0,0-6.31,4.36,11.09,11.09,0,0,0-1.46,8.22L520.64,79a9.58,9.58,0,0,0-6.5,4,10.78,10.78,0,0,0-1.64,8.35l.22,1a9.66,9.66,0,0,0-3.08.17l-13.6,3A9.34,9.34,0,0,0,490,100a10.53,10.53,0,0,0-.93,8.34l11.62,38.76-.28,0a8.14,8.14,0,0,0-7.4,8.81,8,8,0,0,0,.24,1.37l38.42,145.6a8.1,8.1,0,0,0,8.58,6l120.08-10.5a8.12,8.12,0,0,0,7.4-7.43L680.23,141a8.14,8.14,0,0,0-7.42-8.79A9.35,9.35,0,0,0,671.41,132.17ZM649.46,89.32a3.31,3.31,0,0,1,3-2.16l13.92.62a2.19,2.19,0,0,1,1.63.81,3.32,3.32,0,0,1,.69,2.58l-4.87,41.66-5.23.45,1.07-27.78a9.91,9.91,0,0,0-2.84-7.42,9.27,9.27,0,0,0-7-2.75l-.55,0Zm-3.74,13.33,4.38-.15a2.21,2.21,0,0,1,1.67.64,2.77,2.77,0,0,1,.75,2.08l-1.11,28.7-16.7,1.46.94-11.45a9.57,9.57,0,0,0-1.88-6.56l-.12-11.1a3.41,3.41,0,0,1,1.27-2.68,2.71,2.71,0,0,1,1.61-.6l9.18-.33Zm-20.2-26.49h.14l14.16-.43a2.4,2.4,0,0,1,1.8.73,3.56,3.56,0,0,1,1,2.65l-.27,9.43h0l-.21,7.07-5.83.21a10.37,10.37,0,0,0-9.79,10.53l.07,7.13-3.39-.24L622.56,80A3.62,3.62,0,0,1,625.52,76.16Zm3,47.18-1.08,13a8.11,8.11,0,0,0-4.73,5.31,39,39,0,0,1-12.49,19.2c-.64.54-1.3,1.06-2,1.55l2.26-40.35a2.5,2.5,0,0,1,2.63-2.36h0l6.18.42h0l6.85.47a2.51,2.51,0,0,1,2.32,2.66v0Zm-27.4,28.41.74-83.39a4.12,4.12,0,0,1,1.19-2.9,2.74,2.74,0,0,1,2-.82l14.34.35a2.59,2.59,0,0,1,1.87.89,4,4,0,0,1,1,2.9l-.05.87-.17.08-.22.09-.64.31-.16.09a11,11,0,0,0-1.16.76l-.1.07c-.23.18-.46.36-.67.56l-.06,0-.34.33-.07.07-.55.6-.12.16-.26.33a3.67,3.67,0,0,0-.27.38l-.24.36-.17.28-.21.38-.23.44-.12.28c-.08.17-.15.34-.22.51l-.09.25-.18.53-.06.22c-.07.22-.12.45-.17.67a1.36,1.36,0,0,0,0,.17c0,.21-.08.42-.11.64a.78.78,0,0,1,0,.14c0,.24,0,.49-.07.74v.18c0,.26,0,.52,0,.78l.59,32.64-2.34-.16a9.66,9.66,0,0,0-10.31,9,.66.66,0,0,0,0,.14l-1.94,34.54ZM570.67,87.49a2.63,2.63,0,0,1,1.83-1l14.1-1.23a2.67,2.67,0,0,1,2,.67,3.7,3.7,0,0,1,1.23,2.58l4,61.94-3.73-26.58a10.9,10.9,0,0,0-3.91-7,9.9,9.9,0,0,0-7.69-2.18l-5.71.8-.53-4.68-2.34-20.59A3.69,3.69,0,0,1,570.67,87.49Zm8.82,34.31a2.9,2.9,0,0,1,2.17.65,3.77,3.77,0,0,1,1.33,2.41l6.3,44.92-.76.08A38.9,38.9,0,0,1,571,167.37l-7.58-39.93a3.42,3.42,0,0,1,.52-2.64,2.43,2.43,0,0,1,1.68-1ZM538.28,73.13a2.62,2.62,0,0,1,1.68-1.2L554,69.1a2.75,2.75,0,0,1,2.1.46,4.09,4.09,0,0,1,1.67,2.66l7.33,39.53.54,4.75-1.07.15a9.64,9.64,0,0,0-6.51,4,10.69,10.69,0,0,0-1.74,8.16L560,148.11l-5.36-10.24L546.5,86.13c0-.26-.1-.51-.15-.77a.85.85,0,0,1,0-.17c-.06-.24-.13-.48-.2-.72a.56.56,0,0,1,0-.12c-.07-.21-.15-.42-.23-.63l-.05-.14c-.1-.22-.19-.44-.3-.65l-.09-.18-.29-.55-.06-.1c-.12-.2-.25-.4-.38-.58l-.12-.19c-.13-.18-.27-.36-.41-.53a1.34,1.34,0,0,0-.11-.14l-.36-.41-.15-.16c-.15-.16-.3-.31-.47-.46l-.16-.15c-.14-.12-.27-.24-.42-.35l-.13-.11-.53-.39-.17-.11-.59-.36-.07,0c-.19-.11-.39-.21-.58-.3l-.12-.06c-.22-.11-.44-.2-.67-.29l-.07,0c-.24-.09-.47-.17-.71-.24h0l-.76-.19h0l-.2-.85A4,4,0,0,1,538.28,73.13ZM520,87.09a2.39,2.39,0,0,1,1.65-1l14-2h.06a3.61,3.61,0,0,1,3.65,3.24L544.27,118l-2.15-4.1a10.92,10.92,0,0,0-6-5.26c-.32-.11-.65-.21-1-.29h-.05c-.32-.08-.63-.13-.95-.18l-.09,0c-.31,0-.61-.06-.92-.08H533c-.31,0-.61,0-.91,0h-.27l-.47.07-.41,0-.59.14c-.12,0-.25,0-.37.09s-.43.14-.64.21l-.31.11a8.27,8.27,0,0,0-.91.42L524,111.38,522.85,106l-3.33-16.07A3.61,3.61,0,0,1,520,87.09Zm-1,35,2-1.08,2.05-1.07h0l8.33-4.38a2.91,2.91,0,0,1,2.26-.11,3.72,3.72,0,0,1,2.06,1.82l21.53,41.08a38.82,38.82,0,0,1-7.29-10.3,8.1,8.1,0,0,0-8-4.56l-13,1.13-10.76-18.34a3.4,3.4,0,0,1-.4-2.66A2.38,2.38,0,0,1,518,123,2.28,2.28,0,0,1,519,122.09Zm-23.12-15.8a3.38,3.38,0,0,1,.23-2.66,2.25,2.25,0,0,1,1.47-1.08l13.6-3a3.32,3.32,0,0,1,3.34,1.61l1.31,6.35,1.53,7.36-1.7.89a9.63,9.63,0,0,0-4.79,5.93,10.65,10.65,0,0,0,1.11,8.27l9,15.4-13.1,1.14Zm177.18,34.06-5.56,66.47-23.37,2.05a3.58,3.58,0,1,0,.63,7.14l22.14-1.93L665.09,236l-18,1.57a3.59,3.59,0,1,0,.62,7.15h0l16.72-1.46-3.94,47.19a1,1,0,0,1-.88.88l-120.09,10.5a.93.93,0,0,1-1-.71l-12.09-45.79,16.73-1.46a3.59,3.59,0,0,0-.62-7.15h0l-18,1.57L519,227l22.25-2a3.59,3.59,0,1,0-.62-7.15L517.15,220l-17-64.49a1,1,0,0,1,.68-1.18.47.47,0,0,1,.17,0l41.6-3.64a1,1,0,0,1,1,.56A46.26,46.26,0,0,0,589.16,177l1.47-.15.7-.09.62-.09a47.8,47.8,0,0,0,6.36-1.4h0a46.29,46.29,0,0,0,31.27-31.58,1,1,0,0,1,.85-.72l41.6-3.64a1,1,0,0,1,1,.86.54.54,0,0,1,0,.18Z"/></g><g id="Grupo_123" data-name="Grupo 123"><path id="Caminho_4760" data-name="Caminho 4760" class="cls-2" d="M728.81,285H919.07A22,22,0,0,0,941,263V233.73a21.91,21.91,0,0,0-10.24-18.51,21.27,21.27,0,0,0,0-21.53A21.91,21.91,0,0,0,941,175.18c0-39.57-27.37-80.49-73.18-80.49H787.35c-52.85,0-80.5,40.49-80.5,80.49a21.94,21.94,0,0,0,10.25,18.51,21.23,21.23,0,0,0,0,21.53,21.94,21.94,0,0,0-10.25,18.51V263A22,22,0,0,0,728.8,285ZM926.39,263a7.32,7.32,0,0,1-7.32,7.32H728.81a7.32,7.32,0,0,1-7.32-7.32h0V233.73a7.31,7.31,0,0,1,7.32-7.32h57.58l108.84,29a7.32,7.32,0,0,0,8.44-3.8l12.61-25.22h2.79a7.32,7.32,0,0,1,7.32,7.32h0ZM728.81,204.45a7.31,7.31,0,0,1,7.31-7.31H911.75a7.32,7.32,0,1,1,0,14.63H736.13a7.31,7.31,0,0,1-7.32-7.31Zm171.1,22-6.67,13.34-50-13.34ZM787.35,109.32h80.5c40.38,0,58.54,38.52,58.54,65.86a7.31,7.31,0,0,1-7.32,7.31H728.81a7.31,7.31,0,0,1-7.32-7.31h0C721.49,148.71,739.05,109.32,787.35,109.32Z"/><path id="Caminho_4761" data-name="Caminho 4761" class="cls-2" d="M787.35,138.59h7.32a7.32,7.32,0,0,0,0-14.63h-7.32a7.32,7.32,0,1,0,0,14.63Z"/><path id="Caminho_4762" data-name="Caminho 4762" class="cls-2" d="M758.08,167.87h7.32a7.32,7.32,0,1,0,0-14.64h-7.32a7.32,7.32,0,0,0,0,14.64Z"/><path id="Caminho_4763" data-name="Caminho 4763" class="cls-2" d="M794.67,160.55a7.32,7.32,0,0,0,7.32,7.32h7.31a7.32,7.32,0,0,0,0-14.64H802A7.32,7.32,0,0,0,794.67,160.55Z"/><path id="Caminho_4764" data-name="Caminho 4764" class="cls-2" d="M845.89,167.87h7.32a7.32,7.32,0,0,0,0-14.64h-7.33a7.32,7.32,0,1,0,0,14.64Z"/><path id="Caminho_4765" data-name="Caminho 4765" class="cls-2" d="M889.8,167.87h7.32a7.32,7.32,0,0,0,0-14.64H889.8a7.32,7.32,0,0,0,0,14.64Z"/><path id="Caminho_4766" data-name="Caminho 4766" class="cls-2" d="M823.94,138.59h7.32a7.32,7.32,0,1,0,0-14.63h-7.32a7.32,7.32,0,1,0,0,14.63Z"/><path id="Caminho_4767" data-name="Caminho 4767" class="cls-2" d="M860.53,138.59h7.32a7.32,7.32,0,0,0,0-14.63h-7.32a7.32,7.32,0,1,0,0,14.63Z"/></g><path id="Caminho_4768" data-name="Caminho 4768" class="cls-3" d="M1122.81,101.29l-66.06-8.11-16.58-59.29a5,5,0,0,0-4.19-3.61L951.75,19.94a5,5,0,0,0-5.57,4.34L943.75,44.1a5,5,0,0,0,4.35,5.56l65.93,8.1,7.49,31.1-37.44-4.6a5,5,0,0,0-5.56,4.34l-3.66,29.73a5,5,0,0,0,4.35,5.57l5.24.64L974,289.51a5,5,0,0,0,4.38,5.27l99.1,12.17a5,5,0,0,0,5.52-4.05l29.74-162.61,5.24.64a5,5,0,0,0,5.56-4.35l3.65-29.72A5,5,0,0,0,1122.81,101.29Zm-99.88-49.23a5,5,0,0,0-4.25-3.79l-64.41-7.9,1.22-9.91,76,9.32L1046,91.86l-13.91-1.7ZM1083,247.28l-21.65-2.66a39.73,39.73,0,0,0,7.3-59.45l25.16,3.09Zm-14.4-31.94A30,30,0,1,1,1042.5,182h0a30,30,0,0,1,26.08,33.38Zm-69.37-8.52a39.83,39.83,0,0,0,9.86,31.39l-21.65-2.66,3.8-59.89,25.15,3.09a39.87,39.87,0,0,0-17.16,28.07Zm-15,78.63,2.54-39.92,94.4,11.59L1074,296.47Zm111.35-107L991.84,165.68l2.54-39.92,108.4,13.31Zm18.62-48L985.39,114.6l2.43-19.82,128.82,15.81Z"/></svg>