<svg id="Camada_1" data-name="Camada 1" xmlns="http://www.w3.org/2000/svg" viewBox="0 0 606.64 683.23"><defs><style>.cls-1{fill:#2f3459;}</style></defs><title>LogoVersao2Azul</title><path class="cls-1" d="M242.23,546.52v36.29H226.38V477.53h15.85v7.12q11.49-13.47,26.73-13.47a43.61,43.61,0,0,1,0,87.21Q253.72,558.39,242.23,546.52Zm0-37.9V521a25.35,25.35,0,0,0,7.43,13.17,27.38,27.38,0,1,0,0-38.67A25.35,25.35,0,0,0,242.23,508.62Z"/><path class="cls-1" d="M344.69,538.48q4,3.53,14.47,3.52a26.51,26.51,0,0,0,19.37-8c.67-.71,2-2.3,4.06-4.75L398.44,535A102.64,102.64,0,0,1,390,545.6a43.58,43.58,0,1,1-3.75-65.16q1.91,1.6,3.75,3.45.76.76,4.36,4.82l-8,8Zm26.49-49q-2.67-2.07-12-2.07a27.31,27.31,0,0,0-27.26,27.33q0,9.27,2.07,12Z"/><path class="cls-1" d="M469.09,483V433.81H485V556.32H469.09v-9.8q-11.47,11.87-26.72,11.87a43.65,43.65,0,0,1,0-87.29Q457.61,471.1,469.09,483Zm0,37.67V508.92a25.38,25.38,0,0,0-7.42-13.47,27.26,27.26,0,1,0,0,38.59A25.38,25.38,0,0,0,469.09,520.64Z"/><path class="cls-1" d="M511.73,443.37a11.61,11.61,0,0,1,0,16.5,11.38,11.38,0,0,1-8.25,3.37,11.26,11.26,0,0,1-8.17-3.37,11.59,11.59,0,0,1,0-16.5,11.29,11.29,0,0,1,8.17-3.36A11.41,11.41,0,0,1,511.73,443.37Zm.08,30.52v82.43H495.23V473.89Z"/><path class="cls-1" d="M540.57,485q9.28-12.58,22.83-13.22V489q-9.06.48-14.42,5.85A27,27,0,0,0,540.57,514v42.37H524V473.89h16.58Z"/><path class="cls-1" d="M149.46,485V479.6h15.92V584.88H149.46V548.59Q138,560.45,122.73,560.46a43.61,43.61,0,1,1,0-87.22Q138,473.24,149.46,485Zm0,37.68V511A25.47,25.47,0,0,0,142,497.52a27.22,27.22,0,0,0-38.63,0,27.32,27.32,0,0,0,19.33,46.63,26.28,26.28,0,0,0,19.3-8A25.47,25.47,0,0,0,149.46,522.71Z"/><path class="cls-1" d="M194.62,490.08q9.3-12.57,22.83-13.21v17.22q-9,.48-14.42,5.85A27.11,27.11,0,0,0,194.62,519v42.38H178V479h16.58Z"/><path class="cls-1" d="M136.76,623c0-3.37-.07-6.13-.27-8.83h5.2l.27,5.26h.2a11.26,11.26,0,0,1,10.25-6,9.66,9.66,0,0,1,9.25,6.55h.13a13.43,13.43,0,0,1,3.65-4.25,11.09,11.09,0,0,1,7.22-2.3c4.31,0,10.72,2.84,10.72,14.17v19.23h-5.8V628.33c0-6.28-2.29-10.06-7.08-10.06a7.69,7.69,0,0,0-7,5.4,9.79,9.79,0,0,0-.47,3v20.17H157.2V627.25c0-5.2-2.29-9-6.81-9-3.71,0-6.41,3-7.35,5.94a8.14,8.14,0,0,0-.48,2.9v19.7h-5.8Z"/><path class="cls-1" d="M196.34,631.56c.13,8,5.26,11.34,11.2,11.34a21.39,21.39,0,0,0,9-1.69l1,4.25a26.3,26.3,0,0,1-10.86,2c-10,0-16.06-6.61-16.06-16.47s5.8-17.61,15.32-17.61c10.66,0,13.49,9.38,13.49,15.39a21.83,21.83,0,0,1-.2,2.76Zm17.41-4.25c.07-3.78-1.55-9.65-8.23-9.65-6,0-8.64,5.54-9.11,9.65Z"/><path class="cls-1" d="M226.84,623c0-3.37-.07-6.13-.27-8.83h5.26l.34,5.39h.13a12,12,0,0,1,10.8-6.14c4.52,0,11.54,2.7,11.54,13.9v19.5H248.7V628c0-5.26-2-9.65-7.56-9.65a8.44,8.44,0,0,0-8,6.07,8.55,8.55,0,0,0-.41,2.77v19.63h-5.93Z"/><path class="cls-1" d="M291.61,637.91c0,3.37.07,6.34.27,8.9h-5.26l-.34-5.33h-.13a12.32,12.32,0,0,1-10.8,6.08c-5.13,0-11.27-2.84-11.27-14.31V614.16H270v18.08c0,6.21,1.89,10.39,7.29,10.39a8.36,8.36,0,0,0,8.36-8.43v-20h5.94Z"/><path class="cls-1" d="M344,598.91v39.47c0,2.9.07,6.21.27,8.43h-5.33l-.27-5.66h-.14a12.08,12.08,0,0,1-11.13,6.41c-7.89,0-14-6.68-14-16.6-.07-10.87,6.67-17.55,14.64-17.55,5,0,8.36,2.37,9.85,5H338v-19.5ZM338,627.45a10.13,10.13,0,0,0-.27-2.5,8.72,8.72,0,0,0-8.57-6.88c-6.14,0-9.78,5.4-9.78,12.62,0,6.61,3.24,12.08,9.65,12.08a8.93,8.93,0,0,0,8.7-7.09,10,10,0,0,0,.27-2.56Z"/><path class="cls-1" d="M360.43,605a3.68,3.68,0,0,1-7.35,0,3.62,3.62,0,0,1,3.71-3.71A3.52,3.52,0,0,1,360.43,605Zm-6.61,41.83V614.16h5.94v32.65Z"/><path class="cls-1" d="M397.75,614.16c-.14,2.36-.27,5-.27,9v19c0,7.49-1.49,12.08-4.66,14.91s-7.76,3.92-11.87,3.92c-3.92,0-8.24-.95-10.87-2.7l1.49-4.52a18.4,18.4,0,0,0,9.58,2.56c6.07,0,10.52-3.17,10.52-11.4v-3.65h-.13a11.65,11.65,0,0,1-10.39,5.47c-8.1,0-13.9-6.88-13.9-15.93,0-11.06,7.22-17.34,14.71-17.34,5.67,0,8.77,3,10.19,5.67h.13l.27-4.92ZM391.61,627a8.69,8.69,0,0,0-8.64-9c-5.67,0-9.72,4.79-9.72,12.35,0,6.41,3.24,11.74,9.65,11.74a8.68,8.68,0,0,0,8.23-6.08,10.21,10.21,0,0,0,.48-3.17Z"/><path class="cls-1" d="M413.54,605a3.68,3.68,0,0,1-7.36,0,3.62,3.62,0,0,1,3.71-3.71A3.53,3.53,0,0,1,413.54,605Zm-6.62,41.83V614.16h5.94v32.65Z"/><path class="cls-1" d="M429.86,604.78v9.38h8.51v4.52h-8.51v17.61c0,4.05,1.15,6.34,4.46,6.34a13.35,13.35,0,0,0,3.44-.4l.27,4.45a14.6,14.6,0,0,1-5.26.81,8.21,8.21,0,0,1-6.41-2.5c-1.69-1.75-2.3-4.65-2.3-8.5V618.68H419v-4.52h5.06v-7.83Z"/><path class="cls-1" d="M463.13,646.81l-.47-4.11h-.21a12.17,12.17,0,0,1-10,4.86c-6.62,0-10-4.66-10-9.38,0-7.9,7-12.22,19.64-12.15v-.67c0-2.7-.75-7.56-7.43-7.56a16.25,16.25,0,0,0-8.5,2.43l-1.35-3.91a20.24,20.24,0,0,1,10.73-2.91c10,0,12.42,6.82,12.42,13.36V639a45.35,45.35,0,0,0,.54,7.82Zm-.88-16.66c-6.48-.14-13.83,1-13.83,7.35a5.25,5.25,0,0,0,5.6,5.67,8.11,8.11,0,0,0,7.89-5.47,5.93,5.93,0,0,0,.34-1.88Z"/><path class="cls-1" d="M477.57,598.91h5.93v47.9h-5.93Z"/><path class="cls-1" d="M286.28,320.55a7.77,7.77,0,0,0-7.77-7.77h-34v7.77a7.78,7.78,0,0,0,7.78,7.78h34V321h0C286.25,320.83,286.28,320.7,286.28,320.55Z"/><path class="cls-1" d="M350.48,85.82h-3.57a0,0,0,0,1,0,0V55.9a8,8,0,0,0-.92-3.82,7.81,7.81,0,0,0-7.77-4L179.38,67a7.76,7.76,0,0,0-6.85,7.72V358.34a7.82,7.82,0,0,0,7.81,7.82H291.5v-7.83h0c0-.2,0-.4,0-.61a7.77,7.77,0,0,0-7.74-7.11H188.12a0,0,0,0,1,0-.05V101.41a0,0,0,0,1,0,0H342.71a0,0,0,0,1,0,0v137.2h8.1v0h.34a7.77,7.77,0,0,0,7.11-7.75V93.63A7.82,7.82,0,0,0,350.48,85.82Zm-19.16,0a0,0,0,0,1,0,0H188.12a0,0,0,0,1,0,0V81.62s0,0,0,0l143.16-17s.05,0,.05,0Z"/><path class="cls-1" d="M464,350.61H452.87V336.52H464a7.77,7.77,0,0,0,7.77-7.77,83.54,83.54,0,0,0-75.65-83.07V232.23a7.78,7.78,0,0,0-15.55,0v13.45a83.55,83.55,0,0,0-75.66,83.07,7.77,7.77,0,0,0,7.78,7.77h11.14v14.09H312.7a7.77,7.77,0,0,0-7.78,7.77v7.78H464a7.78,7.78,0,0,0,7.76-7.48h0v-8.07Zm-26.69,0H339.39V336.52h97.93ZM320.91,321a67.89,67.89,0,0,1,134.88,0Z"/><path class="cls-1" d="M228.24,178.38V205.1a5.54,5.54,0,0,0,5.55,5.55h26.73a5.54,5.54,0,0,0,5.55-5.55V178.38a5.55,5.55,0,0,0-5.55-5.56H233.79a5.55,5.55,0,0,0-5.55,5.56Zm0,0"/><path class="cls-1" d="M294.54,185.59v13.95H281.15a5.56,5.56,0,1,0,0,11.11h19a5.54,5.54,0,0,0,5.55-5.55V185.59a5.56,5.56,0,0,0-11.11,0Zm0,0"/><path class="cls-1" d="M228.24,136.79v26.73a5.55,5.55,0,0,0,5.55,5.55h26.73a5.55,5.55,0,0,0,5.55-5.55V136.79a5.55,5.55,0,0,0-5.55-5.56H233.79a5.55,5.55,0,0,0-5.55,5.56ZM255,142.34V158H239.35V142.34Zm0,0"/><path class="cls-1" d="M275.75,142.23v15.84a5.55,5.55,0,0,0,5.55,5.55h15.84a5.56,5.56,0,0,0,5.55-5.55V142.23a5.56,5.56,0,0,0-5.55-5.56H281.3a5.55,5.55,0,0,0-5.55,5.56Zm0,0"/></svg>