<svg id="Camada_1" data-name="Camada 1" xmlns="http://www.w3.org/2000/svg" viewBox="0 0 986.55 401.41"><defs><style>.cls-1,.cls-2{fill:#fff;}.cls-2{font-size:96.92px;font-family:AcuminPro-Regular, Acumin Pro;}.cls-3{letter-spacing:0em;}.cls-4{letter-spacing:0em;}</style></defs><title>Prancheta 6</title><path class="cls-1" d="M140.17,315.87a8.1,8.1,0,0,0-8.1-8.1H96.69v8.1a8.1,8.1,0,0,0,8.1,8.11h35.38v-7.67h0C140.16,316.16,140.17,316,140.17,315.87Z"/><path class="cls-1" d="M493.37,195.1v52.13H470.6V96h22.77v10.23q16.5-19.37,38.38-19.36a62.51,62.51,0,0,1,62.58,62.58,62.6,62.6,0,0,1-62.58,62.69Q509.86,212.14,493.37,195.1Zm0-54.45v17.71q2.08,10.45,10.67,18.92a39.27,39.27,0,0,0,67-27.83,39.2,39.2,0,0,0-67-27.71Q495.46,130.2,493.37,140.65Z"/><path class="cls-1" d="M640.54,183.55q5.72,5.05,20.78,5.06a38.11,38.11,0,0,0,27.83-11.44q1.43-1.54,5.83-6.82l22.77,8.14q-8.37,11.55-12.1,15.29a60.42,60.42,0,0,1-44.33,18.36q-25.85,0-44.21-18.36a60.4,60.4,0,0,1-18.37-44.33,60.37,60.37,0,0,1,18.37-44.32q18.36-18.37,44.21-18.37,22.21,0,38.94,13.42,2.75,2.31,5.39,4.95,1.1,1.09,6.27,6.93l-11.44,11.55Zm38.05-70.39q-3.86-3-17.27-3a39.23,39.23,0,0,0-39.15,39.26q0,13.32,3,17.27Z"/><path class="cls-1" d="M819.23,103.81V33.2h22.88v176H819.23V195.1q-16.5,17-38.38,17a62.6,62.6,0,0,1-62.58-62.69,60.47,60.47,0,0,1,18.31-44.32,60.2,60.2,0,0,1,44.27-18.37Q802.74,86.76,819.23,103.81Zm0,54.11V141.09q-2-10.67-10.67-19.35a39.24,39.24,0,0,0-67,27.71,39.27,39.27,0,0,0,67,27.72Q817.26,168.49,819.23,157.92Z"/><path class="cls-1" d="M880.48,46.94a15.94,15.94,0,0,1,4.94,11.85,15.94,15.94,0,0,1-4.94,11.85,16.38,16.38,0,0,1-11.86,4.83,16.21,16.21,0,0,1-11.73-4.83,15.91,15.91,0,0,1-4.95-11.85,15.91,15.91,0,0,1,4.95-11.85,16.18,16.18,0,0,1,11.73-4.84A16.35,16.35,0,0,1,880.48,46.94Zm.11,43.83v118.4H856.77V90.77Z"/><path class="cls-1" d="M921.9,106.77q13.33-18.06,32.79-19v24.74q-13,.69-20.71,8.4a38.86,38.86,0,0,0-12.08,27.39v60.86H898.08V90.77H921.9Z"/><path class="cls-1" d="M360.1,106.78V99H383V250.2H360.1V198.07q-16.5,17-38.39,17a60.2,60.2,0,0,1-44.26-18.36,60.5,60.5,0,0,1-18.32-44.33,62.53,62.53,0,0,1,62.58-62.58Q343.61,89.84,360.1,106.78Zm0,54.11V144.06q-2-10.67-10.67-19.35a39.24,39.24,0,0,0-67,27.71,39.27,39.27,0,0,0,67,27.83Q358.12,171.57,360.1,160.89Z"/><path class="cls-1" d="M425,114q13.35-18.06,32.79-19v24.73q-13,.69-20.71,8.4A38.88,38.88,0,0,0,425,155.57v60.87H401.16V98H425Z"/><text class="cls-2" transform="translate(379.32 339.16)">me<tspan class="cls-3" x="132.68" y="0">n</tspan><tspan x="187.06" y="0">u dig</tspan><tspan class="cls-4" x="398.82" y="0">i</tspan><tspan x="422.18" y="0">tal </tspan></text><path class="cls-1" d="M207.07,71.28h-3.72a0,0,0,0,1,0,0V40.11a8.11,8.11,0,0,0-9.06-8.19L28.79,51.63a8.1,8.1,0,0,0-7.14,8V355.24a8.14,8.14,0,0,0,8.14,8.15H145.61v-8.16h0c0-.21,0-.42,0-.63a8.1,8.1,0,0,0-8.07-7.41H37.89a0,0,0,0,1,0-.05V87.53a0,0,0,0,1,0,0H199a0,0,0,0,1,0,0v143h8.44v0h.35a8.1,8.1,0,0,0,7.42-8.07v-143A8.15,8.15,0,0,0,207.07,71.28Zm-20,0a0,0,0,0,1,0,0H37.89a0,0,0,0,1,0,0V66.91a0,0,0,0,1,0,0L187.05,49.1a0,0,0,0,1,0,0Z"/><path class="cls-1" d="M325.36,347.19H313.75V332.51h11.61a8.1,8.1,0,0,0,8.1-8.1,87.06,87.06,0,0,0-78.83-86.56v-14a8.1,8.1,0,1,0-16.2,0v14a87.06,87.06,0,0,0-78.83,86.56,8.1,8.1,0,0,0,8.1,8.1h11.61v14.68H167.7a8.1,8.1,0,0,0-8.1,8.1v8.1H325.36a8.1,8.1,0,0,0,8.09-7.79h0v-8.41Zm-27.81,0h-102V332.51h102ZM176.26,316.31a70.74,70.74,0,0,1,140.54,0Z"/><path class="cls-1" d="M79.7,167.73v27.84a5.78,5.78,0,0,0,5.78,5.79h27.85a5.79,5.79,0,0,0,5.79-5.79V167.73a5.79,5.79,0,0,0-5.79-5.79H85.48a5.78,5.78,0,0,0-5.78,5.79Zm0,0"/><path class="cls-1" d="M148.79,175.25v14.53h-14a5.79,5.79,0,1,0,0,11.58h19.74a5.79,5.79,0,0,0,5.79-5.79V175.25a5.79,5.79,0,1,0-11.57,0Zm0,0"/><path class="cls-1" d="M79.7,124.39v27.85A5.78,5.78,0,0,0,85.48,158h27.85a5.79,5.79,0,0,0,5.79-5.79V124.39a5.78,5.78,0,0,0-5.79-5.78H85.48a5.78,5.78,0,0,0-5.78,5.78Zm27.84,5.79v16.28H91.27V130.18Zm0,0"/><path class="cls-1" d="M129.2,130.06v16.51a5.79,5.79,0,0,0,5.79,5.79h16.5a5.79,5.79,0,0,0,5.78-5.79V130.06a5.79,5.79,0,0,0-5.78-5.79H135a5.79,5.79,0,0,0-5.79,5.79Zm0,0"/></svg>