<?xml version="1.0" encoding="utf-8"?>
<!-- Generator: Adobe Illustrator 23.0.6, SVG Export Plug-In . SVG Version: 6.00 Build 0)  -->
<svg version="1.1" id="Camada_1" xmlns="http://www.w3.org/2000/svg" xmlns:xlink="http://www.w3.org/1999/xlink" x="0px" y="0px"
	 viewBox="0 0 31.3 28.7" style="enable-background:new 0 0 31.3 28.7;" xml:space="preserve">
<style type="text/css">
	.st0{fill:#F2C26A;}
	.st1{fill:#253257;stroke:#263257;stroke-width:0.5;stroke-miterlimit:10;}
</style>
<rect class="st0" width="31.3" height="28.7"/>
<path id="serving-dish" class="st1" d="M25.6,14.4h-0.7c-0.1-1.1-0.3-2.1-0.8-3.1c-0.1-0.2-0.2-0.2-0.4-0.1
	c-0.2,0.1-0.2,0.2-0.1,0.4c0.4,0.9,0.7,1.9,0.7,2.9H10.5c-0.2,0-0.3,0.1-0.3,0.3c0,0.2,0.1,0.3,0.3,0.3h15.1c0.2,0,0.3,0.1,0.3,0.3
	v0.4c0,0.2-0.1,0.3-0.3,0.3H6.8c-0.2,0-0.3-0.1-0.3-0.3v-0.4c0-0.2,0.1-0.3,0.3-0.3h2.3c0.2,0,0.3-0.1,0.3-0.3s-0.1-0.3-0.3-0.3h-1
	c0.3-4.1,3.5-7.3,7.6-7.6h0c0.1,0,0.2,0,0.2,0h0h0.1h0.2c0.1,0,0.1,0,0.2,0h0.1c0.1,0,0.1,0,0.2,0l0.1,0c2.5,0.2,4.8,1.5,6.2,3.5
	c0.1,0.1,0.3,0.2,0.4,0.1c0.1-0.1,0.2-0.3,0.1-0.4c-1.4-2-3.5-3.4-6-3.7c0.2-0.2,0.2-0.5,0.2-0.8c0-0.2-0.1-0.5-0.6-0.6
	c-0.6-0.2-1.2-0.2-1.8,0c-0.5,0.2-0.6,0.5-0.6,0.6c0,0.3,0.1,0.6,0.2,0.8c-4.1,0.6-7.2,4-7.5,8.1H6.8c-0.5,0-0.9,0.4-0.9,0.9v0.4
	c0,0.5,0.4,0.9,0.9,0.9H10c-0.2,0.1-0.3,0.2-0.5,0.4l0,0c0,0,0,0,0,0l-1.4,1.7c-0.4-0.2-0.9-0.1-1.1,0.2l-0.6,0.8
	c-0.3,0.4-0.2,0.9,0.2,1.2l3.9,2.6c0.1,0.1,0.3,0.1,0.5,0.1c0.1,0,0.1,0,0.2,0c0.2,0,0.4-0.2,0.5-0.4l0.6-0.8
	c0.3-0.4,0.2-0.9-0.2-1.2l0,0c0.3-0.3,0.6-0.5,1-0.6c0.8-0.1,1.6-0.1,2.4,0c0.8,0.1,1.7,0.1,2.5-0.1l1.1-0.3c0.7-0.2,1.4-0.6,2-1
	l0,0l1.9-1.7c0.3-0.2,0.4-0.7,0.3-1h2.4c0.5,0,0.9-0.4,0.9-0.9v-0.4C26.5,14.8,26.1,14.4,25.6,14.4L25.6,14.4z M16.2,5.4
	c0.3,0,0.6,0,0.9,0.2c0,0.3-0.1,0.5-0.4,0.7l-0.2,0h-0.1c-0.1,0-0.2,0-0.2,0c-0.1,0-0.1,0-0.2,0H16l-0.1,0l-0.1,0
	c-0.2-0.2-0.4-0.4-0.4-0.7C15.6,5.4,15.9,5.3,16.2,5.4L16.2,5.4z M18.4,16.7c0-0.1,0-0.1-0.1-0.1h2.9l-1.3,0.8l-1.8,0.5h-0.1
	C18.5,17.6,18.6,17.1,18.4,16.7L18.4,16.7z M15.1,16.6l-0.4,0.1l-0.3-0.1H15.1z M11.7,22.2L11.1,23c-0.1,0.1-0.2,0.1-0.3,0.1
	c0,0,0,0,0,0L7,20.4c-0.1-0.1-0.1-0.2-0.1-0.3l0.6-0.8c0.1-0.1,0.2-0.1,0.3-0.1c0,0,0,0,0,0L8,19.4l0,0l3.6,2.5
	C11.8,21.9,11.8,22.1,11.7,22.2L11.7,22.2z M22.6,17.1L22.6,17.1l-1.9,1.7c-0.5,0.4-1.1,0.7-1.8,0.9L17.7,20
	c-0.7,0.2-1.5,0.2-2.2,0.1c-0.9-0.2-1.8-0.2-2.7,0c-0.5,0.1-1,0.4-1.4,0.9l-2.9-1.9l1.4-1.7c0.5-0.5,1.1-0.8,1.8-0.8h0
	c0.2,0,0.4,0,0.6,0.1l0.1,0l2,0.5c0,0,0.1,0,0.1,0l2.6-0.5c0.1,0,0.2,0,0.3,0.1c0.1,0,0.1,0.1,0.1,0.2c0.1,0.2,0,0.4-0.2,0.5
	L16.7,18c-0.1,0.1-0.2,0.3-0.1,0.4c0.1,0.1,0.2,0.2,0.3,0.2l1.3,0c0,0,0.1,0,0.1,0l1.9-0.5c0,0,0.1,0,0.1,0l1.9-1.2
	c0.2-0.1,0.4-0.2,0.5,0C22.7,16.8,22.7,17,22.6,17.1L22.6,17.1z"/>
</svg>
